<svg width="83" height="77" viewBox="0 0 83 77" fill="none" xmlns="http://www.w3.org/2000/svg">
<ellipse cx="38" cy="37" rx="38" ry="37" fill="#B23535"/>
<line x1="-2.85194e-10" y1="53" x2="57" y2="53" stroke="white" stroke-width="2"/>
<path d="M21.25 39C21.25 38.8619 21.1381 38.75 21 38.75C20.8619 38.75 20.75 38.8619 20.75 39H21.25ZM20.75 50V50.25H21.25V50H20.75ZM20.75 39V50H21.25V39H20.75Z" fill="white"/>
<path d="M28.25 32C28.25 31.8619 28.1381 31.75 28 31.75C27.8619 31.75 27.75 31.8619 27.75 32H28.25ZM27.75 50V50.25H28.25V50H27.75ZM27.75 32V50H28.25V32H27.75Z" fill="white"/>
<path d="M27.25 32.5C27.25 32.3619 27.1381 32.25 27 32.25C26.8619 32.25 26.75 32.3619 26.75 32.5H27.25ZM26.75 50V50.25H27.25V50H26.75ZM26.75 32.5V50H27.25V32.5H26.75Z" fill="white"/>
<path d="M26.25 33C26.25 32.8619 26.1381 32.75 26 32.75C25.8619 32.75 25.75 32.8619 25.75 33H26.25ZM25.75 50V50.25H26.25V50H25.75ZM25.75 33V50H26.25V33H25.75Z" fill="white"/>
<path d="M25.25 34C25.25 33.8619 25.1381 33.75 25 33.75C24.8619 33.75 24.75 33.8619 24.75 34H25.25ZM24.75 50V50.25H25.25V50H24.75ZM24.75 34V50H25.25V34H24.75Z" fill="white"/>
<path d="M24.25 37.5C24.25 37.3619 24.1381 37.25 24 37.25C23.8619 37.25 23.75 37.3619 23.75 37.5H24.25ZM23.75 50V50.25H24.25V50H23.75ZM23.75 37.5V50H24.25V37.5H23.75Z" fill="white"/>
<path d="M23.25 38C23.25 37.8619 23.1381 37.75 23 37.75C22.8619 37.75 22.75 37.8619 22.75 38H23.25ZM22.75 50V50.25H23.25V50H22.75ZM22.75 38V50H23.25V38H22.75Z" fill="white"/>
<path d="M22.25 38.5C22.25 38.3619 22.1381 38.25 22 38.25C21.8619 38.25 21.75 38.3619 21.75 38.5H22.25ZM21.75 50V50.25H22.25V50H21.75ZM21.75 38.5V50H22.25V38.5H21.75Z" fill="white"/>
<line x1="63.7092" y1="12.5444" x2="73.433" y2="5.59324" stroke="#B23535"/>
<line x1="69.6964" y1="21.3988" x2="80.8475" y2="15.6989" stroke="#B23535"/>
<path d="M18.9781 38.1257L74.7489 4.33682" stroke="white" stroke-width="0.7" stroke-linecap="round"/>
<path d="M19.0193 38.1725L75.0793 4.78645" stroke="white" stroke-width="0.7" stroke-linecap="round"/>
<path d="M19.9317 39.7566L81.6142 15.1512" stroke="white" stroke-width="0.7" stroke-linecap="round"/>
<path d="M19.9617 39.8154L81.8376 15.7038" stroke="white" stroke-width="0.7" stroke-linecap="round"/>
<path d="M50 56C50 58.7578 49.3534 61.4885 48.097 64.0364C46.8406 66.5842 44.9991 68.8992 42.6777 70.8492C40.3562 72.7993 37.6002 74.3461 34.5671 75.4015C31.5339 76.4568 28.283 77 25 77C21.717 77 18.4661 76.4568 15.4329 75.4015C12.3998 74.3461 9.64379 72.7993 7.32233 70.8492C5.00086 68.8992 3.15938 66.5842 1.90301 64.0364C0.646644 61.4885 -2.87013e-07 58.7578 0 56L25 56H50Z" fill="white"/>
<path d="M57 54C57 56.7578 56.2628 59.4885 54.8306 62.0364C53.3983 64.5842 51.299 66.8992 48.6525 68.8492C46.0061 70.7993 42.8643 72.3461 39.4065 73.4015C35.9487 74.4568 32.2427 75 28.5 75L28.5 72.5019C31.7974 72.5019 35.0626 72.0233 38.109 71.0935C41.1555 70.1637 43.9236 68.8008 46.2552 67.0828C48.5869 65.3647 50.4364 63.3251 51.6983 61.0804C52.9602 58.8356 53.6097 56.4297 53.6097 54H57Z" fill="white"/>
<path d="M13.912 16.016H15.728V20.672H13.912V20.096H15.176V16.592H13.912V16.016ZM13.608 16.016H14.16V21.304H13.608V16.016ZM16.912 16.512H20.56V17.08H16.912V16.512ZM16.736 18.168H19.608V18.728H16.736V18.168ZM17.248 15.28L17.848 15.416C17.512 16.56 16.968 17.64 16.352 18.344C16.24 18.24 16 18.04 15.856 17.952C16.472 17.312 16.968 16.312 17.248 15.28ZM19.52 18.168H19.616L19.76 18.144L20.168 18.368C20.144 18.408 20.112 18.448 20.072 18.488C17.064 20.944 16.856 21.36 16.856 21.624C16.856 21.84 17.088 21.928 17.448 21.928H19.712C20.056 21.928 20.144 21.784 20.176 20.728C20.336 20.816 20.552 20.896 20.728 20.928C20.648 22.296 20.4 22.52 19.68 22.52H17.472C16.616 22.52 16.232 22.216 16.232 21.704C16.232 21.28 16.368 20.768 19.52 18.168ZM13.968 26.048H15.752V30.52H13.968V29.96H15.192V26.6H13.968V26.048ZM13.616 26.048H14.176V31.288H13.616V26.048ZM16.456 25.8H17.048V31.376C17.048 31.832 17.136 31.928 17.664 31.928C17.92 31.928 19.256 31.928 19.576 31.928C20.032 31.928 20.112 31.704 20.176 30.792C20.32 30.896 20.56 30.992 20.728 31.024C20.632 32.12 20.44 32.488 19.6 32.488C19.384 32.488 17.848 32.488 17.64 32.488C16.744 32.488 16.456 32.272 16.456 31.368V25.8ZM16.744 25.8H20.408V30.008H19.824V26.36H16.744V25.8ZM16.728 28.944H20.04V29.496H16.728V28.944ZM18.136 26H18.688V29.12H18.136V26Z" fill="white"/>
</svg>
